# xmcd
#
# Track frame offsets:
#	150
#	17487
#	30142
#	40094
#	50624
#	57166
#	74908
#	86637
#	99048
#	110436
#	121307
#	134689
#
# Disc length: 1978
#
# Revision: 1
# Processed by: cddbd v1.5.1PL0 Copyright (c) Steve Scherf et al.
# Submitted via: dBpowerAMP V4.0
# Normalized: r0:TRMNUM
#
DISCID=9a07b80c
DTITLE=Don Williams - The Best Of
DYEAR=1900
DGENRE=Country
TTITLE0=I believe In You/Don Williams
TTITLE1=Amanda/Don Williams
TTITLE2=Take my Hand For A While/Don Williams
TTITLE3=Always Something There To Remind Me/Don Williams
TTITLE4=Lord I Hope This Day Is Good/Don Williams
TTITLE5=Good Ole Boys like Me/Don Williams
TTITLE6=Tulsa Time/Don Williams
TTITLE7=Theres Never been A Time/Don Williams
TTITLE8=Follow Me Back To Louisville/Don Williams
TTITLE9=Spend Some Time With Me/Don Williams
TTITLE10=Ruby Tuesday/Don Williams
TTITLE11=You're My Best Friend/Don Williams
EXTD=
EXTT0=
EXTT1=
EXTT2=
EXTT3=
EXTT4=
EXTT5=
EXTT6=
EXTT7=
EXTT8=
EXTT9=
EXTT10=
EXTT11=
PLAYORDER=
